<?xml version="1.0" encoding="utf-8"?>
<!-- Generator: Adobe Illustrator 21.1.0, SVG Export Plug-In . SVG Version: 6.00 Build 0)  -->
<svg version="1.1" xmlns="http://www.w3.org/2000/svg" xmlns:xlink="http://www.w3.org/1999/xlink" x="0px" y="0px"
	 viewBox="0 0 3000 3000" style="enable-background:new 0 0 3000 3000;" xml:space="preserve">
<style type="text/css">
	.st0{fill:none;stroke:#000000;stroke-width:18;stroke-miterlimit:10;}
	.st1{fill:#46BAE9;stroke:#000000;stroke-width:18;stroke-miterlimit:10;}
	.st2{fill:#FFFFFF;stroke:#000000;stroke-width:18;stroke-miterlimit:10;}
</style>
<g id="Frame">
	<polyline class="st0" points="1043.2,2174 308,2174 308,1807 	"/>
	<polyline class="st0" points="2692,1807 2692,2174 1956.3,2174 	"/>
	<polyline class="st0" points="1956.3,826 2692,826 2692,1166.5 	"/>
	<polyline class="st0" points="308,1167 308,826 1043.2,826 	"/>
	<g>
		<path d="M256.3,1661.5c-20,3-30.5,8.5-50.5,8.5c-85.5,0-85.5-83.5-85.5-186.5s0-183,85.5-183l50,10c0,21.5-11.5,22.5-25,21.5
			l-25-3c-54,0-54,68-54,154.5c0,86,0,154.5,54,154.5c20,0,30.5-3.5,50.5-5V1661.5z"/>
		<path d="M478.8,1666.5c-30,0-30-0.5-35-23l-22-99.5h-76l-27,122.5h-2.5c-21.5,0-27.5,0-27.5-8c0-3.5,1-8.5,79-352h32l81.5,360
			H478.8z M413.8,1504l-25-133.5h-9.5L354.8,1504l-4.5,12.5h68L413.8,1504z"/>
		<path d="M745.8,1666.5c-28.5,0-28.5,0-29-23l2-266h-5.5l-2,9L660.8,1493l-12,23h-20l-12.5-22.5l-51.5-107l-1.5-9h-5l1.5,266
			c0,23,0,23-28.5,23h-2v-360h2.5c28.5,0,28.5,0,39.5,23l63.5,137h7.5l74.5-160h2.5c28.5,0,28.5,0,28.5,23v337H745.8z"/>
		<path d="M823.3,1666.5v-361l67-5c92.5,0,92.5,38,92.5,97.5s-1,97.5-92.5,97.5h-37.5l2,12.5v135.5c0,23-1,23-29,23H823.3z
			 M890.3,1467c60,0,60-19.5,60-69s0-69-60-69h-37.5l2,12.5v113l-2,12.5H890.3z"/>
		<path d="M1181.8,1306.5h3.5c28.5,0,29,0,29,23V1518c0,103-0.5,152-81.5,152c-80,0-79.5-49-79.5-152v-211.5h3.5c28.5,0,29,0,29,23
			V1518c0,86-2,123.5,47,123.5s49-37.5,49-123.5V1306.5z"/>
		<path d="M1267.8,1660v-28l73,5c60.5,0,52.5-39.5,52.5-81c0-51.5-124.5-99-124.5-172.5c0-52-1-83,81-83l53,10
			c0,21.5-8.5,21.5-22,20.5l-28-3c-50,0-52,22-52,52c0,59.5,125,97.5,125,170c0,56,5,120-85.5,120L1267.8,1660z"/>
		<path d="M1558.3,1660v-28l73,5c60.5,0,52.5-39.5,52.5-81c0-51.5-124.5-99-124.5-172.5c0-52-1-83,81-83l53,10
			c0,21.5-8.5,21.5-22,20.5l-28-3c-50,0-52,22-52,52c0,59.5,125,97.5,125,170c0,56,5,120-85.5,120L1558.3,1660z"/>
		<path d="M1801.8,1666.5v-321l2-12.5h-56v-26.5h141.5v26.5h-56.5l2,12.5v298c0,23-0.5,23-29,23H1801.8z"/>
		<path d="M2068.2,1306.5h3.5c28.5,0,29,0,29,23V1518c0,103-0.5,152-81.5,152c-80,0-79.5-49-79.5-152v-211.5h3.5c28.5,0,29,0,29,23
			V1518c0,86-2,123.5,47,123.5s49-37.5,49-123.5V1306.5z"/>
		<path d="M2173.2,1666.5v-361l80.5-5c85.5,0,85.5,80,85.5,183s0,186.5-85.5,186.5L2173.2,1666.5z M2253.7,1641.5c54,0,54-72,54-158
			c0-86.5,0-154.5-54-154.5h-51l2,12.5V1629l-2,12.5H2253.7z"/>
		<path d="M2438.2,1666.5c-28.5,0-29,0-29-23v-337h2.5c28.5,0,29,0,29,23v337H2438.2z"/>
		<path d="M2510.7,1483.5c0-127,15.5-183,88-183s87.5,56,87.5,183s-15,186.5-87.5,186.5S2510.7,1610.5,2510.7,1483.5z M2652.7,1484
			c0-99-10-155-54-155s-54.5,55-54.5,154.5s9.5,158,54.5,158S2652.7,1583,2652.7,1484z"/>
		<path d="M2737.2,1660v-28l73,5c60.5,0,52.5-39.5,52.5-81c0-51.5-124.5-99-124.5-172.5c0-52-1-83,81-83l53,10
			c0,21.5-8.5,21.5-22,20.5l-28-3c-50,0-52,22-52,52c0,59.5,125,97.5,125,170c0,56,5,120-85.5,120L2737.2,1660z"/>
	</g>
	<g>
		<path d="M1183.4,2188.8v42.3h-13.1v-112h30.8c12,0,21.3,2.9,27.9,8.8c6.6,5.8,9.9,14.1,9.9,24.7s-3.7,19.3-11,26.1
			c-7.3,6.8-17.2,10.2-29.6,10.2H1183.4z M1183.4,2131v45.9h13.8c9.1,0,16-2.1,20.7-6.2s7.1-10,7.1-17.5c0-14.8-8.8-22.2-26.3-22.2
			H1183.4z"/>
		<path d="M1348.9,2233c-15.9,0-28.6-5.2-38.2-15.7c-9.6-10.5-14.3-24.1-14.3-40.9c0-18,4.9-32.4,14.6-43.1
			c9.7-10.7,23-16.1,39.8-16.1c15.5,0,27.9,5.2,37.4,15.6c9.5,10.4,14.2,24,14.2,40.9c0,18.3-4.8,32.7-14.5,43.4
			S1365.1,2233,1348.9,2233z M1349.8,2129.1c-11.8,0-21.3,4.2-28.7,12.7c-7.3,8.5-11,19.6-11,33.4c0,13.8,3.6,24.9,10.7,33.3
			c7.2,8.4,16.5,12.6,28,12.6c12.3,0,22-4,29.1-12c7.1-8,10.6-19.2,10.6-33.7c0-14.8-3.4-26.2-10.3-34.3
			C1371.4,2133.1,1361.9,2129.1,1349.8,2129.1z"/>
		<path d="M1548.5,2231.1h-15.6l-18.8-31.4c-1.7-2.9-3.4-5.4-5-7.5c-1.6-2.1-3.3-3.7-5-5c-1.7-1.3-3.5-2.3-5.5-2.9
			c-2-0.6-4.2-0.9-6.6-0.9h-10.8v47.7h-13.1v-112h33.4c4.9,0,9.4,0.6,13.6,1.8c4.1,1.2,7.7,3.1,10.8,5.6s5.4,5.6,7.1,9.3
			c1.7,3.7,2.6,8.1,2.6,13.1c0,3.9-0.6,7.5-1.8,10.7c-1.2,3.3-2.8,6.2-5,8.7c-2.2,2.6-4.8,4.7-7.8,6.5s-6.5,3.2-10.3,4.2v0.3
			c1.9,0.8,3.5,1.8,4.9,2.9c1.4,1.1,2.7,2.3,3.9,3.8c1.3,1.5,2.5,3.1,3.7,5c1.2,1.8,2.6,4,4.1,6.4L1548.5,2231.1z M1481.3,2131v40.6
			h17.8c3.3,0,6.3-0.5,9.1-1.5c2.8-1,5.2-2.4,7.2-4.3c2-1.8,3.6-4.1,4.8-6.8c1.1-2.7,1.7-5.7,1.7-9c0-6-1.9-10.7-5.8-14
			c-3.9-3.4-9.5-5-16.8-5H1481.3z"/>
		<path d="M1673.9,2131h-32.3v100.2h-13.1V2131h-32.3v-11.9h77.7V2131z"/>
		<path d="M1780.5,2233c-15.9,0-28.6-5.2-38.2-15.7c-9.6-10.5-14.3-24.1-14.3-40.9c0-18,4.9-32.4,14.6-43.1
			c9.7-10.7,23-16.1,39.8-16.1c15.5,0,27.9,5.2,37.4,15.6c9.5,10.4,14.2,24,14.2,40.9c0,18.3-4.8,32.7-14.5,43.4
			S1796.7,2233,1780.5,2233z M1781.4,2129.1c-11.8,0-21.3,4.2-28.7,12.7c-7.3,8.5-11,19.6-11,33.4c0,13.8,3.6,24.9,10.7,33.3
			c7.2,8.4,16.5,12.6,28,12.6c12.3,0,22-4,29.1-12c7.1-8,10.6-19.2,10.6-33.7c0-14.8-3.4-26.2-10.3-34.3
			C1803,2133.1,1793.5,2129.1,1781.4,2129.1z"/>
	</g>
</g>
<g id="Casas">
	<polygon class="st1" points="1515.3,737.1 1700.9,587.3 1885.3,737.1 1885.3,963.4 1515.3,963.4 	"/>
	<rect x="1657.8" y="843.8" class="st2" width="85.7" height="119.6"/>
	<polygon class="st1" points="1116.3,737.1 1301.9,587.3 1486.3,737.1 1486.3,963.4 1116.3,963.4 	"/>
	<rect x="1258.8" y="843.8" class="st2" width="85.7" height="119.6"/>
	<polygon class="st1" points="1301.3,719 1502,557 1701.3,719 1701.3,963.7 1301.3,963.7 	"/>
	<rect x="1455.3" y="834.3" class="st2" width="92.7" height="129.3"/>
	<g>
	</g>
	<g>
	</g>
	<g>
	</g>
	<g>
	</g>
	<g>
	</g>
	<g>
	</g>
	<g>
	</g>
	<g>
	</g>
	<g>
	</g>
	<g>
	</g>
	<g>
	</g>
	<g>
	</g>
	<g>
	</g>
	<g>
	</g>
	<g>
	</g>
</g>
</svg>
